<svg width="14" height="14" viewBox="0 0 14 14" fill="none" xmlns="http://www.w3.org/2000/svg">
<path d="M10.3166 7.53597C10.3013 5.99701 11.5716 5.2589 11.6283 5.22161C10.9144 4.17778 9.8022 4.03455 9.40635 4.01825C8.46055 3.92219 7.55995 4.57536 7.08013 4.57536C6.60131 4.57536 5.85998 4.03233 5.07569 4.04616C4.04396 4.06147 3.09298 4.64623 2.56205 5.5698C1.49056 7.42855 2.28794 10.1832 3.33202 11.6918C3.84245 12.4292 4.45117 13.2589 5.24978 13.2285C6.01951 13.1981 6.30992 12.7307 7.2404 12.7307C8.17089 12.7307 8.43215 13.2285 9.24633 13.213C10.0741 13.1979 10.5988 12.4615 11.1051 11.7212C11.6911 10.8645 11.9323 10.035 11.9467 9.99306C11.9286 9.98467 10.3331 9.37348 10.3166 7.53597Z" fill="black"/>
<path d="M8.78676 3.01988C9.21027 2.50575 9.49722 1.79134 9.41919 1.08014C8.808 1.10483 8.06816 1.48636 7.62934 2.00001C7.2362 2.45586 6.89246 3.18163 6.98457 3.87999C7.66638 3.93284 8.36177 3.53303 8.78676 3.01988Z" fill="black"/>
</svg>
