<svg width="47" height="41" viewBox="0 0 47 41" fill="none" xmlns="http://www.w3.org/2000/svg">
<g clip-path="url(#clip0_4_539)">
<path d="M2.17783 38.3978H0.822561L0.815329 37.5682H1.914C2.11157 37.5682 2.26938 37.5464 2.38744 37.5032C2.5055 37.4577 2.59103 37.3913 2.64404 37.3048C2.69946 37.2184 2.72716 37.1102 2.72716 36.9801C2.72716 36.8311 2.69946 36.7109 2.64404 36.6195C2.58862 36.5281 2.50068 36.462 2.38021 36.4211C2.26216 36.3778 2.10916 36.3562 1.92123 36.3562H1.29961V40.6306H0.0310822V35.3786H1.92123C2.24649 35.3786 2.53682 35.4087 2.79222 35.4688C3.04761 35.5265 3.26445 35.6155 3.44274 35.7357C3.62345 35.856 3.76078 36.0075 3.85474 36.1903C3.9487 36.3706 3.9957 36.5834 3.9957 36.8287C3.9957 37.0426 3.94993 37.2435 3.85837 37.4311C3.76681 37.6188 3.61381 37.7713 3.39938 37.8892C3.18735 38.0048 2.89702 38.0646 2.52839 38.0694L2.17783 38.3978ZM2.12723 40.6306H0.515366L0.94905 39.6566H2.12723C2.30071 39.6566 2.43925 39.6304 2.54285 39.5772C2.64886 39.5222 2.72475 39.4498 2.77053 39.3607C2.81872 39.2695 2.84281 39.1687 2.84281 39.0579C2.84281 38.9234 2.81992 38.8067 2.77414 38.7081C2.73078 38.6094 2.6609 38.5337 2.56453 38.4809C2.46816 38.4255 2.33925 38.3978 2.17783 38.3978H1.11168L1.11891 37.5682H2.39467L2.69102 37.8999C3.04279 37.8855 3.32107 37.935 3.52587 38.048C3.73306 38.161 3.88124 38.3099 3.97039 38.4953C4.05954 38.6804 4.1041 38.8739 4.1041 39.076C4.1041 39.4198 4.02942 39.7072 3.88005 39.9381C3.73306 40.1689 3.51262 40.3421 3.21868 40.4574C2.92473 40.573 2.56092 40.6306 2.12723 40.6306ZM7.66396 35.3786H8.93248V38.8089C8.93248 39.2178 8.84696 39.5643 8.67591 39.8479C8.50482 40.1294 8.26508 40.3421 7.95669 40.4862C7.64831 40.6306 7.28567 40.7027 6.86885 40.7027C6.45688 40.7027 6.09424 40.6306 5.78104 40.4862C5.47021 40.3421 5.22688 40.1294 5.05098 39.8479C4.87753 39.5643 4.79078 39.2178 4.79078 38.8089V35.3786H6.06293V38.8089C6.06293 39.0253 6.09424 39.2023 6.15689 39.3393C6.21954 39.4738 6.3111 39.5724 6.43156 39.6352C6.55202 39.6976 6.6978 39.729 6.86885 39.729C7.04234 39.729 7.18812 39.6976 7.30617 39.6352C7.42423 39.5724 7.51338 39.4738 7.57359 39.3393C7.63384 39.2023 7.66396 39.0253 7.66396 38.8089V35.3786ZM11.4407 40.6306H10.2733L10.2805 39.6566H11.4407C11.6816 39.6566 11.8852 39.599 12.0514 39.4837C12.2201 39.3681 12.3478 39.1964 12.4345 38.9677C12.5237 38.7369 12.5682 38.4532 12.5682 38.1163V37.8892C12.5682 37.6369 12.5429 37.4156 12.4923 37.2254C12.4442 37.033 12.3718 36.8732 12.2755 36.7457C12.1791 36.6159 12.0586 36.5185 11.9141 36.4536C11.7719 36.3886 11.6081 36.3562 11.4226 36.3562H10.2516V35.3786H11.4226C11.7792 35.3786 12.1056 35.44 12.402 35.5626C12.7007 35.6828 12.9585 35.856 13.1754 36.082C13.3946 36.3057 13.5633 36.5714 13.6814 36.8792C13.8018 37.1848 13.862 37.5239 13.862 37.8966V38.1163C13.862 38.4868 13.8018 38.8259 13.6814 39.1336C13.5633 39.4416 13.3959 39.7072 13.179 39.9307C12.9622 40.1545 12.7055 40.3277 12.4092 40.4504C12.1153 40.5704 11.7924 40.6306 11.4407 40.6306ZM10.9997 35.3786V40.6306H9.73118V35.3786H10.9997ZM18.8278 37.8242V39.9813C18.7386 40.0799 18.6013 40.1859 18.4157 40.2989C18.2326 40.4094 18.0013 40.5043 17.7219 40.5837C17.4424 40.6631 17.1135 40.7027 16.7352 40.7027C16.3859 40.7027 16.069 40.6476 15.7847 40.5368C15.5004 40.4238 15.2559 40.259 15.0511 40.0426C14.8487 39.8239 14.6921 39.5569 14.5813 39.2418C14.4728 38.9245 14.4186 38.5614 14.4186 38.1525V37.8604C14.4186 37.4515 14.474 37.0884 14.5849 36.771C14.6957 36.4536 14.8511 36.1867 15.0511 35.9702C15.2535 35.7514 15.4908 35.5854 15.7631 35.4725C16.0377 35.3594 16.3389 35.3029 16.6666 35.3029C17.1509 35.3029 17.5448 35.3799 17.8483 35.5338C18.1519 35.6853 18.382 35.8957 18.5387 36.165C18.6952 36.4319 18.7904 36.7409 18.8241 37.0921H17.6062C17.5821 36.9189 17.5363 36.7722 17.4689 36.652C17.4038 36.5293 17.3098 36.4367 17.187 36.3742C17.0641 36.3093 16.9051 36.2768 16.7099 36.2768C16.5581 36.2768 16.4196 36.3093 16.2943 36.3742C16.1714 36.4391 16.0666 36.5378 15.9799 36.67C15.8931 36.7999 15.8257 36.9635 15.7775 37.1604C15.7317 37.3576 15.7088 37.5885 15.7088 37.853V38.1525C15.7088 38.4148 15.7305 38.6442 15.7739 38.8414C15.8196 39.0386 15.8871 39.2034 15.9763 39.3356C16.0678 39.4656 16.1835 39.5643 16.3232 39.6315C16.4654 39.6965 16.6328 39.729 16.8256 39.729C16.9605 39.729 17.0761 39.7179 17.1725 39.6965C17.2689 39.6725 17.3484 39.6433 17.4111 39.6097C17.4761 39.5739 17.5255 39.5402 17.5592 39.5089V38.6937H16.6774V37.8242H18.8278ZM23.1899 39.6566V40.6306H20.3854V39.6566H23.1899ZM20.8372 35.3786V40.6306H19.5687V35.3786H20.8372ZM22.8285 37.4637V38.4052H20.3854V37.4637H22.8285ZM23.2008 35.3786V36.3562H20.3854V35.3786H23.2008ZM26.3305 35.3786V40.6306H25.062V35.3786H26.3305ZM27.9135 35.3786V36.3562H23.5152V35.3786H27.9135Z" fill="#388E3C"/>
<path d="M30.5987 38.3978H29.2434L29.2362 37.5682H30.3349C30.5325 37.5682 30.6903 37.5464 30.8083 37.5032C30.9264 37.4578 31.0119 37.3913 31.0649 37.3048C31.1203 37.2184 31.148 37.1102 31.148 36.9802C31.148 36.8311 31.1203 36.7109 31.0649 36.6195C31.0095 36.5281 30.9216 36.462 30.8011 36.4211C30.683 36.3778 30.5301 36.3562 30.3421 36.3562H29.7205V40.6306H28.452V35.3787H30.3421C30.6674 35.3787 30.9577 35.4087 31.2131 35.4689C31.4685 35.5266 31.6853 35.6155 31.8636 35.7358C32.0443 35.856 32.1817 36.0075 32.2756 36.1903C32.3696 36.3706 32.4166 36.5835 32.4166 36.8287C32.4166 37.0426 32.3708 37.2435 32.2793 37.4312C32.1877 37.6188 32.0347 37.7714 31.8203 37.8892C31.6082 38.0048 31.3179 38.0646 30.9493 38.0694L30.5987 38.3978ZM30.5481 40.6306H28.9363L29.3699 39.6566H30.5481C30.7216 39.6566 30.8601 39.6304 30.9637 39.5772C31.0697 39.5222 31.1456 39.4498 31.1914 39.3608C31.2396 39.2695 31.2637 39.1687 31.2637 39.0579C31.2637 38.9234 31.2408 38.8067 31.195 38.7081C31.1517 38.6095 31.0818 38.5337 30.9854 38.4809C30.889 38.4255 30.7601 38.3978 30.5987 38.3978H29.5326L29.5398 37.5682H30.8156L31.1119 37.8999C31.4637 37.8855 31.742 37.935 31.9468 38.048C32.154 38.161 32.3021 38.3099 32.3913 38.4953C32.4804 38.6804 32.525 38.8739 32.525 39.076C32.525 39.4199 32.4503 39.7072 32.3009 39.9381C32.154 40.1689 31.9335 40.3422 31.6396 40.4574C31.3456 40.573 30.9818 40.6306 30.5481 40.6306ZM37.6822 37.8999V38.113C37.6822 38.5145 37.6255 38.875 37.5123 39.1949C37.4016 39.5126 37.2436 39.7841 37.039 40.0101C36.8342 40.2339 36.592 40.4057 36.3125 40.5261C36.0331 40.6439 35.7247 40.7027 35.3873 40.7027C35.0476 40.7027 34.7368 40.6439 34.4549 40.5261C34.1754 40.4057 33.9321 40.2339 33.7249 40.0101C33.5201 39.7841 33.361 39.5126 33.2478 39.1949C33.137 38.875 33.0816 38.5145 33.0816 38.113V37.8999C33.0816 37.4984 33.137 37.1379 33.2478 36.8179C33.361 36.4981 33.5189 36.2264 33.7212 36.0027C33.926 35.7767 34.1682 35.6047 34.4477 35.4869C34.7296 35.3667 35.0404 35.3065 35.3801 35.3065C35.7174 35.3065 36.0258 35.3667 36.3053 35.4869C36.5872 35.6047 36.8305 35.7767 37.0353 36.0027C37.2403 36.2264 37.399 36.4981 37.5123 36.8179C37.6255 37.1379 37.6822 37.4984 37.6822 37.8999ZM36.3957 38.113V37.8929C36.3957 37.6332 36.3728 37.4046 36.327 37.2073C36.2836 37.0079 36.2186 36.8408 36.1318 36.7061C36.0451 36.5714 35.9379 36.4704 35.8102 36.4031C35.6849 36.3334 35.5415 36.2985 35.3801 36.2985C35.2114 36.2985 35.0645 36.3334 34.9392 36.4031C34.8139 36.4704 34.7091 36.5714 34.6248 36.7061C34.5404 36.8408 34.4766 37.0079 34.4332 37.2073C34.3923 37.4046 34.3718 37.6332 34.3718 37.8929V38.113C34.3718 38.3701 34.3923 38.5987 34.4332 38.7982C34.4766 38.9954 34.5404 39.1624 34.6248 39.2994C34.7115 39.4368 34.8175 39.5403 34.9428 39.6097C35.0705 39.6795 35.2187 39.7146 35.3873 39.7146C35.5488 39.7146 35.6921 39.6795 35.8174 39.6097C35.9427 39.5403 36.0475 39.4368 36.1318 39.2994C36.2186 39.1624 36.2836 38.9954 36.327 38.7982C36.3728 38.5987 36.3957 38.3701 36.3957 38.113ZM41.0506 39.2348C41.0506 39.1528 41.0384 39.0797 41.0143 39.0147C40.9903 38.9474 40.9459 38.8846 40.8807 38.827C40.8156 38.7694 40.7216 38.7118 40.5988 38.6538C40.4785 38.5939 40.3193 38.5312 40.1217 38.4665C39.8904 38.3893 39.6676 38.3029 39.453 38.2068C39.2387 38.1082 39.047 37.9937 38.8786 37.8641C38.7099 37.7318 38.5763 37.5778 38.4775 37.4024C38.3786 37.2243 38.3291 37.0175 38.3291 36.7819C38.3291 36.5558 38.3798 36.3526 38.4808 36.1722C38.5822 35.9895 38.7232 35.8344 38.9038 35.7069C39.087 35.5771 39.3013 35.4785 39.547 35.4111C39.7927 35.3414 40.0614 35.3065 40.353 35.3065C40.7386 35.3065 41.0784 35.3739 41.3722 35.5085C41.6686 35.6408 41.8999 35.8296 42.0661 36.0748C42.2349 36.3177 42.3192 36.6051 42.3192 36.937H41.0576C41.0576 36.8047 41.0299 36.6881 40.9747 36.587C40.9218 36.4861 40.8408 36.4067 40.7323 36.349C40.6239 36.2913 40.4881 36.2624 40.3242 36.2624C40.165 36.2624 40.0314 36.2865 39.923 36.3345C39.8146 36.3826 39.7328 36.4476 39.6773 36.5294C39.6217 36.6087 39.594 36.6965 39.594 36.7927C39.594 36.872 39.6158 36.9443 39.6591 37.009C39.705 37.0718 39.7687 37.1305 39.8508 37.1859C39.9352 37.2413 40.0362 37.2941 40.1543 37.3447C40.2746 37.395 40.4096 37.4445 40.5592 37.4925C40.8386 37.5815 41.0865 37.6812 41.3034 37.7917C41.5228 37.8999 41.7071 38.024 41.8566 38.1633C42.0084 38.3003 42.1227 38.4569 42.1997 38.6324C42.2793 38.8078 42.3192 39.0062 42.3192 39.2274C42.3192 39.4631 42.2734 39.6725 42.1816 39.855C42.0902 40.0378 41.9588 40.1929 41.7878 40.3204C41.6168 40.4456 41.4118 40.5405 41.1735 40.6055C40.9348 40.6702 40.6687 40.7027 40.3749 40.7027C40.1047 40.7027 39.8386 40.6691 39.5759 40.6018C39.3157 40.532 39.0796 40.4264 38.8675 40.2842C38.6555 40.1401 38.4856 39.9562 38.3579 39.7323C38.2328 39.5063 38.1703 39.2381 38.1703 38.9282H39.4423C39.4423 39.0819 39.4626 39.2119 39.5037 39.3175C39.5448 39.4235 39.6051 39.5089 39.6843 39.5739C39.7639 39.6363 39.8616 39.6821 39.977 39.7109C40.0929 39.7371 40.2253 39.7504 40.3749 39.7504C40.5362 39.7504 40.6661 39.7275 40.7649 39.6821C40.8637 39.6337 40.9363 39.5713 40.9818 39.4945C41.0277 39.4151 41.0506 39.3286 41.0506 39.2348ZM45.6836 39.2348C45.6836 39.1528 45.6718 39.0797 45.6477 39.0147C45.6237 38.9474 45.5789 38.8846 45.5138 38.827C45.449 38.7694 45.355 38.7118 45.2321 38.6538C45.1115 38.5939 44.9524 38.5312 44.7551 38.4665C44.5238 38.3893 44.3006 38.3029 44.0864 38.2068C43.8721 38.1082 43.6804 37.9937 43.5116 37.8641C43.3429 37.7318 43.2093 37.5778 43.1105 37.4024C43.0117 37.2243 42.9624 37.0175 42.9624 36.7819C42.9624 36.5558 43.0131 36.3526 43.1142 36.1722C43.2152 35.9895 43.3562 35.8344 43.5372 35.7069C43.72 35.5771 43.9346 35.4785 44.1804 35.4111C44.4261 35.3414 44.6948 35.3065 44.9864 35.3065C45.3717 35.3065 45.7114 35.3739 46.0052 35.5085C46.3017 35.6408 46.533 35.8296 46.6995 36.0748C46.8679 36.3177 46.9523 36.6051 46.9523 36.937H45.691C45.691 36.8047 45.6633 36.6881 45.6078 36.587C45.5548 36.4861 45.4742 36.4067 45.3657 36.349C45.2573 36.2913 45.1211 36.2624 44.9572 36.2624C44.7984 36.2624 44.6644 36.2865 44.556 36.3345C44.4479 36.3826 44.3658 36.4476 44.3103 36.5294C44.2551 36.6087 44.2274 36.6965 44.2274 36.7927C44.2274 36.872 44.2488 36.9443 44.2925 37.009C44.338 37.0718 44.402 37.1305 44.4838 37.1859C44.5682 37.2413 44.6692 37.2941 44.7873 37.3447C44.9079 37.395 45.043 37.4445 45.1922 37.4925C45.4716 37.5815 45.7199 37.6812 45.9368 37.7917C46.1559 37.8999 46.3402 38.024 46.4897 38.1633C46.6414 38.3003 46.7558 38.4569 46.8331 38.6324C46.9127 38.8078 46.9523 39.0062 46.9523 39.2274C46.9523 39.4631 46.9064 39.6725 46.815 39.855C46.7236 40.0378 46.5922 40.1929 46.4212 40.3204C46.2498 40.4456 46.0452 40.5405 45.8065 40.6055C45.5682 40.6702 45.3017 40.7027 45.0079 40.7027C44.7381 40.7027 44.472 40.6691 44.2092 40.6018C43.9491 40.532 43.713 40.4264 43.5009 40.2842C43.2889 40.1401 43.119 39.9562 42.9913 39.7323C42.8659 39.5063 42.8033 39.2381 42.8033 38.9282H44.0756C44.0756 39.0819 44.096 39.2119 44.1371 39.3175C44.1778 39.4235 44.2381 39.5089 44.3177 39.5739C44.3972 39.6363 44.4946 39.6821 44.6104 39.7109C44.7259 39.7371 44.8587 39.7504 45.0079 39.7504C45.1692 39.7504 45.2995 39.7275 45.3983 39.6821C45.4971 39.6337 45.5693 39.5713 45.6152 39.4945C45.6611 39.4151 45.6836 39.3286 45.6836 39.2348Z" fill="#8BC34A"/>
<path d="M16.7873 0L7.03149 9.7331V22.7674L16.7833 32.5045H29.8427L39.5984 22.7714V9.73706L29.8466 0H16.7873Z" fill="#388E3C"/>
<path d="M24.3269 7.57495V10.0942H22.9478V7.57495H24.3269ZM24.1534 21.712V24.0494H22.7743V21.712H24.1534ZM24.7345 18.8205C24.7345 18.5031 24.6854 18.2405 24.5871 18.0327C24.4888 17.825 24.3298 17.6431 24.11 17.4873C23.8903 17.3315 23.5983 17.1757 23.234 17.0198C22.4649 16.7082 21.7855 16.3879 21.1957 16.0589C20.6116 15.7299 20.1519 15.3202 19.8166 14.8296C19.4869 14.339 19.3221 13.7013 19.3221 12.9164C19.3221 12.2007 19.4985 11.5774 19.8512 11.0464C20.2098 10.5155 20.7013 10.1057 21.3258 9.81713C21.9561 9.52278 22.6818 9.37563 23.5029 9.37563C24.1274 9.37563 24.697 9.46797 25.2116 9.65265C25.7262 9.83734 26.1715 10.1057 26.5474 10.4578C26.9232 10.8041 27.2123 11.2311 27.4147 11.739C27.6171 12.2411 27.7183 12.8125 27.7183 13.4531H24.7953C24.7953 13.1241 24.7606 12.8413 24.6912 12.6047C24.6276 12.3681 24.5351 12.1747 24.4137 12.0247C24.2922 11.8746 24.1505 11.765 23.9886 11.6957C23.8267 11.6207 23.6503 11.5832 23.4595 11.5832C23.1704 11.5832 22.9362 11.6467 22.757 11.7736C22.5777 11.8948 22.4476 12.0564 22.3666 12.2584C22.2857 12.4605 22.2452 12.6855 22.2452 12.9337C22.2452 13.1934 22.2886 13.4214 22.3753 13.6176C22.4678 13.8081 22.624 13.987 22.8437 14.1543C23.0634 14.3159 23.3641 14.4833 23.7458 14.6565C24.4975 14.9739 25.1682 15.3029 25.7581 15.6434C26.3479 15.9839 26.8105 16.4023 27.1459 16.8986C27.487 17.3892 27.6576 18.0241 27.6576 18.8032C27.6576 19.5535 27.4812 20.1941 27.1285 20.7251C26.7758 21.2503 26.2842 21.6514 25.654 21.9284C25.0237 22.2054 24.2951 22.344 23.4682 22.344C22.9131 22.344 22.3609 22.2718 21.8115 22.1275C21.268 21.9832 20.7707 21.7495 20.3196 21.4263C19.8744 21.0973 19.5188 20.6616 19.2528 20.1191C18.9868 19.5766 18.8538 18.91 18.8538 18.1193H21.7768C21.7768 18.506 21.8231 18.8292 21.9156 19.0889C22.0081 19.3486 22.1324 19.5564 22.2886 19.7122C22.4505 19.8622 22.6326 19.9719 22.835 20.0412C23.0374 20.1047 23.2485 20.1364 23.4682 20.1364C23.7631 20.1364 24.0031 20.0787 24.1881 19.9633C24.3732 19.8421 24.5091 19.6834 24.5958 19.4871C24.6883 19.2851 24.7345 19.0629 24.7345 18.8205Z" fill="#8BC34A"/>
</g>
<defs>
<clipPath id="clip0_4_539">
<rect width="47" height="41" fill="white"/>
</clipPath>
</defs>
</svg>
