<svg width="19" height="19" viewBox="0 0 19 19" fill="none" xmlns="http://www.w3.org/2000/svg">
<path d="M15.2 9.63936C15.2 9.2467 15.162 8.84136 15.0987 8.46136H9.61401V10.7034H12.7553C12.6287 11.4254 12.2107 12.0587 11.59 12.464L13.4647 13.9207C14.5667 12.8947 15.2 11.4 15.2 9.63936Z" fill="#4280EF"/>
<path d="M9.614 15.314C11.1847 15.314 12.502 14.7947 13.4647 13.908L11.59 12.464C11.0707 12.8187 10.3993 13.0213 9.614 13.0213C8.094 13.0213 6.81467 11.9953 6.346 10.6273L4.42067 12.1093C5.40867 14.0727 7.41 15.314 9.614 15.314Z" fill="#34A353"/>
<path d="M6.346 10.6147C6.10534 9.89269 6.10534 9.10735 6.346 8.38535L4.42067 6.89069C3.59734 8.53735 3.59734 10.4754 4.42067 12.1094L6.346 10.6147Z" fill="#F6B704"/>
<path d="M9.614 5.99135C10.4373 5.97868 11.248 6.29535 11.8433 6.86535L13.5027 5.19335C12.4513 4.20535 11.058 3.67335 9.614 3.68601C7.41 3.68601 5.40867 4.92735 4.42067 6.89068L6.346 8.38534C6.81467 7.00468 8.094 5.99135 9.614 5.99135Z" fill="#E54335"/>
</svg>
